<svg width="65" height="48" viewBox="0 0 65 48" fill="none" xmlns="http://www.w3.org/2000/svg">
<path d="M32.3299 13.9838C33.3042 13.9838 34.0866 13.7154 34.6771 13.1788C35.2677 12.6421 35.5629 11.9116 35.5629 11.0022C35.5629 10.2419 35.2972 9.66048 34.7805 9.24306C34.2638 8.82564 33.5847 8.63184 32.7432 8.63184C31.8132 8.63184 31.0308 8.90018 30.4108 9.43687C29.7907 9.97355 29.4807 10.6444 29.4807 11.4494C29.4807 12.2545 29.7169 12.8806 30.1893 13.3278C30.6617 13.7602 31.3703 13.9838 32.3299 13.9838Z" fill="black"/>
<path d="M60.261 19.5145C62.8296 19.5145 64.0992 18.7244 64.0992 17.1441C64.0992 16.7118 64.0254 16.4136 63.863 16.2497C63.7006 16.0857 63.4497 16.0111 63.0806 16.0111H59.2719C62.2244 13.3724 63.7006 10.2865 63.7006 6.73839C63.7006 5.45631 63.4349 4.39784 62.8887 3.54809C62.3425 2.69834 61.5896 2.28092 60.6448 2.28092C59.3457 2.28092 58.1499 2.89214 57.0279 4.1295C55.906 5.36686 54.9464 7.02164 54.1492 9.10875C53.3521 11.1959 52.7615 13.4917 52.3777 16.0111H50.4438C49.4252 16.0111 48.9085 16.6522 48.9085 17.9343C48.9085 18.4858 49.0266 18.8884 49.2628 19.1418C49.499 19.3952 49.9567 19.5145 50.6357 19.5145H51.9644C51.8906 20.5431 51.861 21.5718 51.861 22.5706C51.861 22.6303 51.861 22.6899 51.861 22.7495C50.7243 22.9135 47.3141 22.988 46.4136 22.988C46.1479 22.988 45.8969 22.9731 45.705 22.9582C45.0702 22.9135 44.524 22.8837 44.0664 22.8837C43.8154 22.8837 43.5349 23.0626 43.2101 23.4055C42.8854 23.7484 42.6196 24.1509 42.413 24.613C42.1915 25.0752 42.1029 25.4479 42.1177 25.746C42.5311 27.5946 42.8558 29.3686 43.092 31.0383C43.3282 32.708 43.4463 34.4373 43.4463 36.2263C43.4463 38.6116 43.1068 39.8042 42.4277 39.8042C42.0587 39.8042 41.8077 38.5668 41.6453 36.0772C41.4829 33.5876 41.4091 31.1725 41.4091 28.8171C41.4091 27.1175 41.5272 25.1497 41.7486 22.9135C48.1261 16.5627 51.3148 10.7039 51.3148 5.32213C51.3148 3.69717 51.0196 2.40018 50.4143 1.44607C49.809 0.477054 48.9823 0 47.9194 0C45.9412 0 44.1402 1.49079 42.4868 4.44257C40.8481 7.40925 39.549 11.1511 38.6042 15.6832C37.9547 18.784 37.5413 21.87 37.3346 24.9112C37.2608 24.9708 37.2018 25.0453 37.1279 25.1199C36.1093 26.3572 35.2974 27.2666 34.6774 27.8331C34.0721 28.3996 33.5554 28.6978 33.142 28.6978C32.7139 28.6978 32.4039 28.5189 32.2268 28.1462C32.0496 27.7735 31.961 27.2517 31.961 26.566C31.961 25.6715 32.2268 23.972 32.773 21.4525C33.2011 19.3654 33.4225 18.0386 33.4225 17.4721C33.4225 16.6969 32.8468 16.3093 31.6805 16.3093C30.9277 16.3093 30.3814 16.4435 30.0419 16.7267C29.7024 17.01 29.4366 17.5019 29.23 18.2324C28.8166 19.6338 28.4918 21.1395 28.2261 22.7495C28.108 23.48 28.0194 24.136 27.9604 24.7472C27.7832 24.7919 27.6061 24.8664 27.3994 25.0006C25.9084 26.0144 24.2402 27.207 22.4244 28.5785L22.7935 25.9696C23.1773 23.3757 23.3987 21.7209 23.4725 20.9904C23.5464 20.3792 23.4135 19.9021 23.074 19.5592C22.7492 19.2312 22.3358 19.0673 21.8339 19.0673H15.4712C14.9102 19.0673 14.4526 19.2462 14.113 19.6189C13.7735 19.9916 13.5964 20.4835 13.5964 21.1246C13.5964 21.8401 13.7735 22.347 14.113 22.6601C14.4526 22.9731 14.9398 23.1222 15.5745 23.1222H19.0438L18.5714 27.3113C16.8737 28.0269 15.235 28.3698 13.6702 28.3698C10.8505 28.3698 8.70994 27.6244 7.21891 26.1187C5.72789 24.613 4.98976 22.4961 4.98976 19.7381C4.98976 17.0547 5.41788 14.7589 6.28887 12.8506C7.1451 10.9424 8.29658 9.49636 9.71379 8.54225C11.131 7.57323 12.6663 7.09618 14.3197 7.09618C15.6779 7.09618 16.6522 7.36452 17.228 7.8863C17.8037 8.40808 18.099 9.15348 18.099 10.1225C18.099 10.4952 18.0251 10.9872 17.8923 11.6282C17.8037 12.1798 17.7594 12.5674 17.7594 12.791C17.7594 13.3128 17.9513 13.7302 18.3204 14.0284C18.6895 14.3265 19.1914 14.4756 19.7967 14.4756C20.6972 14.4756 21.4058 14.0731 21.8929 13.2532C22.3801 12.4332 22.6311 11.3599 22.6311 10.0032C22.6311 7.94593 21.9668 6.29115 20.6381 5.03888C19.3095 3.78662 17.3165 3.16048 14.6593 3.16048C11.8987 3.16048 9.38902 3.87606 7.15986 5.30723C4.93071 6.73839 3.17396 8.75096 1.90438 11.3599C0.634792 13.924 0 16.9205 0 20.3046C0 22.7346 0.531454 24.8664 1.59436 26.7001C2.65727 28.5338 4.16305 29.9501 6.08219 30.9489C8.01609 31.9477 10.2452 32.4397 12.7844 32.4397C14.5116 32.4397 16.2684 32.067 18.0547 31.3067L17.9513 31.9626C15.5745 33.8112 13.7292 35.466 12.4153 36.9121C11.1162 38.3581 10.2157 39.6253 9.74332 40.7285C9.27092 41.8317 9.03471 42.92 9.03471 43.9933C9.03471 45.1562 9.40378 46.1103 10.1271 46.8258C10.8505 47.5414 11.7953 47.9141 12.9468 47.9141C15.1021 47.9141 16.8884 46.5575 18.2909 43.8293C19.6933 41.1012 20.8448 37.3742 21.7306 32.6335C24.5207 30.6805 26.6022 29.2643 27.9456 28.3549C28.0932 29.3388 28.3885 30.1886 28.8314 30.8743C29.4957 31.9328 30.5734 32.4546 32.0496 32.4546C33.6587 32.4546 35.3712 31.5005 37.187 29.6072C37.2165 34.0497 37.5561 37.3891 38.2204 39.6253C38.9142 41.9659 40.0805 43.1287 41.7044 43.1287C43.0035 43.1287 44.0368 42.4727 44.834 41.1757C45.6312 39.8638 46.0298 37.9854 46.0298 35.5107C46.0298 34.3926 45.9265 32.9615 45.7345 31.2321C45.5426 29.5028 45.2917 27.9226 44.9964 26.5063C46.015 26.715 46.7975 26.8194 47.3437 26.8194C48.879 26.8194 50.7391 26.551 52.0972 25.9995C52.3334 27.4306 52.7468 28.668 53.3225 29.7264C54.3264 31.5452 55.8912 32.4546 58.0466 32.4546C59.5376 32.4546 60.881 31.9626 62.062 30.9787C62.4015 30.7104 62.6525 30.3675 62.8296 29.9501C63.0068 29.5326 63.0806 29.1152 63.0806 28.6829C63.0806 28.2505 62.992 27.8779 62.8296 27.5648C62.6525 27.2517 62.4311 27.1026 62.1653 27.1026C61.9144 27.1026 61.6634 27.2219 61.4124 27.4455C60.9991 27.8182 60.5562 28.1164 60.0543 28.34C59.5523 28.5636 59.1242 28.6829 58.7552 28.6829C58.0466 28.6829 57.5003 28.4891 57.1018 28.0866C56.7032 27.684 56.4227 27.0281 56.2455 26.0889C56.0684 25.1646 55.9946 23.8676 55.9946 22.2277C55.9946 21.5867 56.0241 20.6922 56.0684 19.5443H60.261V19.5145ZM57.3822 10.4356C57.7513 8.91495 58.1499 7.72231 58.578 6.85765C58.9914 5.99299 59.3752 5.57557 59.7147 5.57557C60.2167 5.57557 60.4676 6.24643 60.4676 7.60305C60.4676 8.79569 60.1281 10.1225 59.4638 11.5686C58.7994 13.0295 57.7956 14.3414 56.4522 15.5043C56.7032 13.6408 57.0132 11.9562 57.3822 10.4356ZM43.8892 11.017C44.4797 8.72115 45.0702 6.87256 45.6755 5.47121C46.2808 4.06987 46.7827 3.36919 47.196 3.36919C47.757 3.36919 48.0523 4.06987 48.0523 5.47121C48.0228 7.43906 47.5356 9.55599 46.5613 11.8071C45.5869 14.0582 44.1845 16.2347 42.3687 18.3219C42.7968 15.7577 43.2987 13.3128 43.8892 11.017ZM15.2793 42.5473C14.5707 43.9039 13.9359 44.5747 13.3454 44.5747C12.7106 44.5747 12.3858 44.1275 12.3858 43.233C12.3858 42.3236 12.7697 41.2503 13.5225 40.0576C14.2754 38.8501 15.5303 37.5084 17.2427 36.0176C16.6375 39.0141 15.9731 41.1906 15.2793 42.5473Z" fill="black"/>
</svg>
