<svg width="87" height="64" viewBox="0 0 87 64" fill="none" xmlns="http://www.w3.org/2000/svg">
<path d="M43.4433 18.6448C44.7526 18.6448 45.804 18.2871 46.5975 17.5715C47.3909 16.8559 47.7877 15.8819 47.7877 14.6694C47.7877 13.6557 47.4306 12.8804 46.7363 12.3239C46.042 11.7673 45.1295 11.5089 43.9988 11.5089C42.749 11.5089 41.6977 11.8667 40.8645 12.5823C40.0313 13.2979 39.6147 14.1923 39.6147 15.2657C39.6147 16.3391 39.9321 17.1739 40.5669 17.7702C41.2017 18.3467 42.1539 18.6448 43.4433 18.6448Z" fill="#EE632C"/>
<path d="M80.9756 26.0193C84.4273 26.0193 86.1333 24.9658 86.1333 22.8588C86.1333 22.2824 86.0341 21.8849 85.8159 21.6662C85.5977 21.4476 85.2605 21.3482 84.7646 21.3482H79.6465C83.614 17.8299 85.5977 13.7153 85.5977 8.98452C85.5977 7.27508 85.2406 5.86379 84.5067 4.73079C83.7727 3.59778 82.761 3.04122 81.4914 3.04122C79.7457 3.04122 78.1389 3.85619 76.6313 5.506C75.1236 7.15581 73.8342 9.36219 72.763 12.145C71.6918 14.9278 70.8983 17.9889 70.3826 21.3482H67.7839C66.4151 21.3482 65.7208 22.2029 65.7208 23.9123C65.7208 24.6478 65.8795 25.1845 66.1969 25.5224C66.5143 25.8603 67.1292 26.0193 68.0418 26.0193H69.8271C69.7279 27.3909 69.6882 28.7624 69.6882 30.0942C69.6882 30.1737 69.6882 30.2532 69.6882 30.3327C68.1608 30.5513 63.5784 30.6507 62.3683 30.6507C62.0112 30.6507 61.674 30.6308 61.4161 30.611C60.5631 30.5513 59.8291 30.5116 59.2142 30.5116C58.8769 30.5116 58.5 30.7501 58.0636 31.2073C57.6272 31.6645 57.2701 32.2012 56.9924 32.8173C56.6949 33.4335 56.5758 33.9305 56.5957 34.328C57.1511 36.7928 57.5875 39.1582 57.9049 41.3844C58.2223 43.6107 58.381 45.9165 58.381 48.3017C58.381 51.4821 57.9248 53.0723 57.0122 53.0723C56.5163 53.0723 56.1791 51.4225 55.9609 48.103C55.7427 44.7835 55.6435 41.5633 55.6435 38.4227C55.6435 36.1567 55.8022 33.5329 56.0997 30.5513C64.6694 22.0836 68.9543 14.2719 68.9543 7.09618C68.9543 4.92956 68.5575 3.20024 67.7442 1.92809C66.9309 0.636072 65.82 0 64.3917 0C61.7335 0 59.3134 1.98773 57.0916 5.92342C54.8897 9.879 53.144 14.8682 51.8744 20.9109C51.0016 25.0453 50.4461 29.1599 50.1684 33.2149C50.0692 33.2944 49.9899 33.3938 49.8907 33.4932C48.5219 35.143 47.4309 36.3555 46.5977 37.1108C45.7844 37.8662 45.0901 38.2637 44.5346 38.2637C43.9593 38.2637 43.5428 38.0252 43.3047 37.5283C43.0667 37.0313 42.9476 36.3356 42.9476 35.4213C42.9476 34.2286 43.3047 31.9626 44.0387 28.6034C44.614 25.8206 44.9115 24.0515 44.9115 23.2961C44.9115 22.2625 44.1379 21.7457 42.5707 21.7457C41.559 21.7457 40.8251 21.9246 40.3688 22.3023C39.9125 22.6799 39.5555 23.3359 39.2777 24.3099C38.7223 26.1783 38.2859 28.1859 37.9288 30.3327C37.7701 31.3067 37.6511 32.1813 37.5717 32.9962C37.3337 33.0559 37.0957 33.1553 36.8179 33.3342C34.8144 34.6858 32.5728 36.276 30.1328 38.1047L30.6287 34.6262C31.1445 31.1675 31.442 28.9612 31.5412 27.9872C31.6404 27.1722 31.4619 26.5361 31.0056 26.079C30.5692 25.6417 30.0138 25.423 29.3393 25.423H20.7894C20.0356 25.423 19.4207 25.6615 18.9644 26.1585C18.5082 26.6554 18.2701 27.3113 18.2701 28.1661C18.2701 29.1202 18.5082 29.796 18.9644 30.2134C19.4207 30.6308 20.0753 30.8296 20.9283 30.8296H25.59L24.9553 36.4151C22.674 37.3692 20.472 37.8264 18.3693 37.8264C14.5804 37.8264 11.704 36.8326 9.70041 34.825C7.69685 32.8173 6.70499 29.9948 6.70499 26.3175C6.70499 22.7396 7.28027 19.6785 8.45067 17.1342C9.60123 14.5899 11.1485 12.6618 13.0529 11.3897C14.9573 10.0976 17.0204 9.46157 19.2421 9.46157C21.0672 9.46157 22.3764 9.81936 23.1501 10.5151C23.9237 11.2108 24.3205 12.2046 24.3205 13.4967C24.3205 13.9936 24.2213 14.6495 24.0427 15.5043C23.9237 16.2397 23.8642 16.7565 23.8642 17.0547C23.8642 17.7504 24.1221 18.307 24.618 18.7045C25.114 19.102 25.7884 19.3008 26.6017 19.3008C27.8118 19.3008 28.764 18.7641 29.4186 17.6709C30.0733 16.5776 30.4105 15.1465 30.4105 13.3376C30.4105 10.5946 29.5178 8.3882 27.7325 6.71851C25.9471 5.04882 23.2691 4.21398 19.6984 4.21398C15.9888 4.21398 12.6165 5.16809 9.62107 7.0763C6.62564 8.98452 4.26501 11.6679 2.559 15.1465C0.853001 18.5654 0 22.5607 0 27.0728C0 30.3128 0.714141 33.1553 2.14242 35.6002C3.5707 38.0451 5.5941 39.9334 8.17295 41.2652C10.7716 42.597 13.767 43.2529 17.1791 43.2529C19.5 43.2529 21.8606 42.756 24.261 41.7422L24.1221 42.6168C20.9283 45.0816 18.4486 47.288 16.6831 49.2161C14.9374 51.1442 13.7274 52.8337 13.0926 54.3047C12.4578 55.7756 12.1404 57.2266 12.1404 58.6578C12.1404 60.2082 12.6363 61.4803 13.6084 62.4345C14.5804 63.3886 15.85 63.8855 17.3973 63.8855C20.2935 63.8855 22.6938 62.0767 24.5784 58.4391C26.4629 54.8016 28.0102 49.8323 29.2004 43.5113C32.9497 40.9074 35.7467 39.0191 37.5519 37.8065C37.7503 39.1184 38.147 40.2514 38.7421 41.1658C39.6348 42.5771 41.0829 43.2728 43.0667 43.2728C45.2289 43.2728 47.53 42.0006 49.97 39.4762C50.0097 45.3997 50.466 49.8522 51.3586 52.8337C52.291 55.9545 53.8581 57.5049 56.0402 57.5049C57.7859 57.5049 59.1745 56.6303 60.2457 54.901C61.3169 53.1518 61.8525 50.6472 61.8525 47.3476C61.8525 45.8568 61.7137 43.9486 61.4558 41.6428C61.1979 39.3371 60.8607 37.2301 60.4639 35.3418C61.8327 35.62 62.8841 35.7592 63.6181 35.7592C65.6811 35.7592 68.1806 35.4014 70.0056 34.6659C70.323 36.5742 70.8785 38.224 71.6521 39.6353C73.0011 42.0603 75.1038 43.2728 78.0001 43.2728C80.0036 43.2728 81.8088 42.6168 83.3958 41.3049C83.852 40.9471 84.1893 40.49 84.4273 39.9334C84.6654 39.3768 84.7646 38.8203 84.7646 38.2438C84.7646 37.6674 84.6455 37.1705 84.4273 36.753C84.1893 36.3356 83.8917 36.1368 83.5346 36.1368C83.1974 36.1368 82.8602 36.2959 82.5229 36.594C81.9675 37.091 81.3724 37.4885 80.6979 37.7867C80.0235 38.0848 79.4482 38.2438 78.9522 38.2438C78.0001 38.2438 77.2661 37.9854 76.7305 37.4487C76.1949 36.9121 75.818 36.0375 75.5799 34.7852C75.3419 33.5528 75.2427 31.8235 75.2427 29.637C75.2427 28.7823 75.2823 27.5896 75.3419 26.0591H80.9756V26.0193ZM77.1074 13.9141C77.6033 11.8866 78.1389 10.2964 78.7142 9.14354C79.2696 7.99066 79.7854 7.43409 80.2417 7.43409C80.9161 7.43409 81.2534 8.32857 81.2534 10.1374C81.2534 11.7276 80.7971 13.4967 79.9044 15.4248C79.0117 17.3727 77.6628 19.1219 75.8576 20.6723C76.1949 18.1877 76.6115 15.9416 77.1074 13.9141ZM58.9761 14.6893C59.7696 11.6282 60.5631 9.16341 61.3764 7.29495C62.1898 5.42649 62.8642 4.49226 63.4197 4.49226C64.1735 4.49226 64.5702 5.42649 64.5702 7.29495C64.5306 9.91875 63.8759 12.7413 62.5667 15.7428C61.2574 18.7443 59.3729 21.6463 56.9329 24.4291C57.5082 21.0103 58.1826 17.7504 58.9761 14.6893ZM20.5316 56.7297C19.5794 58.5385 18.7264 59.433 17.9329 59.433C17.0799 59.433 16.6434 58.8367 16.6434 57.644C16.6434 56.4315 17.1592 55.0004 18.1709 53.4102C19.1826 51.8001 20.8688 50.0112 23.1699 48.0234C22.3566 52.0188 21.4639 54.9209 20.5316 56.7297Z" fill="#EE632C"/>
</svg>
